<mxfile host="65bd71144e" pages="1">
    <diagram id="xk0LYboaFIT9QmwzVqD-" name="Page-1">
        <mxGraphModel dx="1862" dy="1207" grid="0" gridSize="10" guides="1" tooltips="1" connect="1" arrows="1" fold="1" page="0" pageScale="1" pageWidth="827" pageHeight="1169" background="#282A36" math="0" shadow="0">
            <root>
                <mxCell id="0"/>
                <mxCell id="1" parent="0"/>
                <mxCell id="200" value="" style="rounded=1;whiteSpace=wrap;html=1;strokeColor=#8BE9FD;fillColor=#2E303D;strokeWidth=3;fontColor=#F8F8F2;" parent="1" vertex="1">
                    <mxGeometry x="-563" y="-195" width="197" height="186" as="geometry"/>
                </mxCell>
                <mxCell id="153" style="edgeStyle=orthogonalEdgeStyle;rounded=0;orthogonalLoop=1;jettySize=auto;html=1;exitX=0;exitY=0.5;exitDx=0;exitDy=0;entryX=1;entryY=0.5;entryDx=0;entryDy=0;fontSize=13;fontColor=#F8F8F2;strokeWidth=2;strokeColor=#BD93F9;" parent="1" edge="1">
                    <mxGeometry relative="1" as="geometry">
                        <mxPoint x="-102" y="213" as="targetPoint"/>
                    </mxGeometry>
                </mxCell>
                <mxCell id="154" style="edgeStyle=orthogonalEdgeStyle;rounded=0;orthogonalLoop=1;jettySize=auto;html=1;exitX=1;exitY=0.5;exitDx=0;exitDy=0;entryX=0;entryY=0.5;entryDx=0;entryDy=0;strokeColor=#BD93F9;strokeWidth=2;fontSize=13;fontColor=#F8F8F2;" parent="1" edge="1">
                    <mxGeometry relative="1" as="geometry">
                        <mxPoint x="94" y="213" as="sourcePoint"/>
                    </mxGeometry>
                </mxCell>
                <mxCell id="201" value="Accounts" style="text;html=1;align=center;verticalAlign=middle;resizable=0;points=[];autosize=1;strokeColor=none;fillColor=none;labelBackgroundColor=none;fontStyle=1;fontSize=16;" parent="1" vertex="1">
                    <mxGeometry x="-506" y="-188" width="83" height="23" as="geometry"/>
                </mxCell>
                <mxCell id="202" value="id" style="text;html=1;align=center;verticalAlign=middle;resizable=0;points=[];autosize=1;strokeColor=none;fillColor=none;fontSize=14;" parent="1" vertex="1">
                    <mxGeometry x="-552" y="-157" width="21" height="21" as="geometry"/>
                </mxCell>
                <mxCell id="203" value="uuid" style="text;html=1;align=center;verticalAlign=middle;resizable=0;points=[];autosize=1;strokeColor=none;fillColor=none;fontSize=14;" parent="1" vertex="1">
                    <mxGeometry x="-423" y="-157" width="36" height="21" as="geometry"/>
                </mxCell>
                <mxCell id="204" value="name" style="text;html=1;align=center;verticalAlign=middle;resizable=0;points=[];autosize=1;strokeColor=none;fillColor=none;fontSize=14;" parent="1" vertex="1">
                    <mxGeometry x="-552" y="-128" width="45" height="21" as="geometry"/>
                </mxCell>
                <mxCell id="205" value="email" style="text;html=1;align=center;verticalAlign=middle;resizable=0;points=[];autosize=1;strokeColor=none;fillColor=none;fontSize=14;" parent="1" vertex="1">
                    <mxGeometry x="-552" y="-100" width="43" height="21" as="geometry"/>
                </mxCell>
                <mxCell id="206" value="password" style="text;html=1;align=center;verticalAlign=middle;resizable=0;points=[];autosize=1;strokeColor=none;fillColor=none;fontSize=14;" parent="1" vertex="1">
                    <mxGeometry x="-552" y="-72" width="70" height="21" as="geometry"/>
                </mxCell>
                <mxCell id="207" value="createdAt" style="text;html=1;align=center;verticalAlign=middle;resizable=0;points=[];autosize=1;strokeColor=none;fillColor=none;fontSize=14;" parent="1" vertex="1">
                    <mxGeometry x="-552" y="-44" width="70" height="21" as="geometry"/>
                </mxCell>
                <mxCell id="208" value="string" style="text;html=1;align=center;verticalAlign=middle;resizable=0;points=[];autosize=1;strokeColor=none;fillColor=none;fontSize=14;" parent="1" vertex="1">
                    <mxGeometry x="-423" y="-128" width="44" height="21" as="geometry"/>
                </mxCell>
                <mxCell id="209" value="string" style="text;html=1;align=center;verticalAlign=middle;resizable=0;points=[];autosize=1;strokeColor=none;fillColor=none;fontSize=14;" parent="1" vertex="1">
                    <mxGeometry x="-423" y="-100" width="44" height="21" as="geometry"/>
                </mxCell>
                <mxCell id="210" value="string" style="text;html=1;align=center;verticalAlign=middle;resizable=0;points=[];autosize=1;strokeColor=none;fillColor=none;fontSize=14;" parent="1" vertex="1">
                    <mxGeometry x="-423" y="-72" width="44" height="21" as="geometry"/>
                </mxCell>
                <mxCell id="211" value="date" style="text;html=1;align=center;verticalAlign=middle;resizable=0;points=[];autosize=1;strokeColor=none;fillColor=none;fontSize=14;" parent="1" vertex="1">
                    <mxGeometry x="-423" y="-44" width="37" height="21" as="geometry"/>
                </mxCell>
                <mxCell id="214" value="" style="rounded=1;whiteSpace=wrap;html=1;strokeColor=#8BE9FD;fillColor=#2E303D;strokeWidth=3;fontColor=#F8F8F2;" parent="1" vertex="1">
                    <mxGeometry x="-321" y="-393" width="197" height="214" as="geometry"/>
                </mxCell>
                <mxCell id="215" value="Adresses" style="text;html=1;align=center;verticalAlign=middle;resizable=0;points=[];autosize=1;strokeColor=none;fillColor=none;labelBackgroundColor=none;fontStyle=1;fontSize=16;" parent="1" vertex="1">
                    <mxGeometry x="-263.5" y="-386" width="82" height="23" as="geometry"/>
                </mxCell>
                <mxCell id="216" value="id" style="text;html=1;align=center;verticalAlign=middle;resizable=0;points=[];autosize=1;strokeColor=none;fillColor=none;fontSize=14;" parent="1" vertex="1">
                    <mxGeometry x="-310" y="-355" width="21" height="21" as="geometry"/>
                </mxCell>
                <mxCell id="217" value="uuid" style="text;html=1;align=center;verticalAlign=middle;resizable=0;points=[];autosize=1;strokeColor=none;fillColor=none;fontSize=14;" parent="1" vertex="1">
                    <mxGeometry x="-181" y="-355" width="36" height="21" as="geometry"/>
                </mxCell>
                <mxCell id="218" value="accountId" style="text;html=1;align=center;verticalAlign=middle;resizable=0;points=[];autosize=1;strokeColor=none;fillColor=none;fontSize=14;" parent="1" vertex="1">
                    <mxGeometry x="-310" y="-326" width="71" height="21" as="geometry"/>
                </mxCell>
                <mxCell id="219" value="surname" style="text;html=1;align=center;verticalAlign=middle;resizable=0;points=[];autosize=1;strokeColor=none;fillColor=none;fontSize=14;" parent="1" vertex="1">
                    <mxGeometry x="-310" y="-298" width="64" height="21" as="geometry"/>
                </mxCell>
                <mxCell id="220" value="code" style="text;html=1;align=center;verticalAlign=middle;resizable=0;points=[];autosize=1;strokeColor=none;fillColor=none;fontSize=14;" parent="1" vertex="1">
                    <mxGeometry x="-310" y="-270" width="40" height="21" as="geometry"/>
                </mxCell>
                <mxCell id="221" value="district" style="text;html=1;align=center;verticalAlign=middle;resizable=0;points=[];autosize=1;strokeColor=none;fillColor=none;fontSize=14;" parent="1" vertex="1">
                    <mxGeometry x="-310" y="-242" width="50" height="21" as="geometry"/>
                </mxCell>
                <mxCell id="222" value="uuid" style="text;html=1;align=center;verticalAlign=middle;resizable=0;points=[];autosize=1;strokeColor=none;fillColor=none;fontSize=14;" parent="1" vertex="1">
                    <mxGeometry x="-181.5" y="-326" width="36" height="21" as="geometry"/>
                </mxCell>
                <mxCell id="223" value="string" style="text;html=1;align=center;verticalAlign=middle;resizable=0;points=[];autosize=1;strokeColor=none;fillColor=none;fontSize=14;" parent="1" vertex="1">
                    <mxGeometry x="-181" y="-298" width="44" height="21" as="geometry"/>
                </mxCell>
                <mxCell id="224" value="string" style="text;html=1;align=center;verticalAlign=middle;resizable=0;points=[];autosize=1;strokeColor=none;fillColor=none;fontSize=14;" parent="1" vertex="1">
                    <mxGeometry x="-181" y="-270" width="44" height="21" as="geometry"/>
                </mxCell>
                <mxCell id="225" value="string" style="text;html=1;align=center;verticalAlign=middle;resizable=0;points=[];autosize=1;strokeColor=none;fillColor=none;fontSize=14;" parent="1" vertex="1">
                    <mxGeometry x="-181" y="-242" width="44" height="21" as="geometry"/>
                </mxCell>
                <mxCell id="229" value="address" style="text;html=1;align=center;verticalAlign=middle;resizable=0;points=[];autosize=1;strokeColor=none;fillColor=none;fontSize=14;" parent="1" vertex="1">
                    <mxGeometry x="-310" y="-214" width="60" height="21" as="geometry"/>
                </mxCell>
                <mxCell id="230" value="string" style="text;html=1;align=center;verticalAlign=middle;resizable=0;points=[];autosize=1;strokeColor=none;fillColor=none;fontSize=14;" parent="1" vertex="1">
                    <mxGeometry x="-181" y="-214" width="44" height="21" as="geometry"/>
                </mxCell>
                <mxCell id="231" value="" style="rounded=1;whiteSpace=wrap;html=1;strokeColor=#8BE9FD;fillColor=#2E303D;strokeWidth=3;fontColor=#F8F8F2;" parent="1" vertex="1">
                    <mxGeometry x="-9" y="-311.5" width="197" height="131" as="geometry"/>
                </mxCell>
                <mxCell id="232" value="Categories" style="text;html=1;align=center;verticalAlign=middle;resizable=0;points=[];autosize=1;strokeColor=none;fillColor=none;labelBackgroundColor=none;fontStyle=1;fontSize=16;" parent="1" vertex="1">
                    <mxGeometry x="43" y="-304.5" width="93" height="23" as="geometry"/>
                </mxCell>
                <mxCell id="233" value="id" style="text;html=1;align=center;verticalAlign=middle;resizable=0;points=[];autosize=1;strokeColor=none;fillColor=none;fontSize=14;" parent="1" vertex="1">
                    <mxGeometry x="2" y="-273.5" width="21" height="21" as="geometry"/>
                </mxCell>
                <mxCell id="234" value="uuid" style="text;html=1;align=center;verticalAlign=middle;resizable=0;points=[];autosize=1;strokeColor=none;fillColor=none;fontSize=14;" parent="1" vertex="1">
                    <mxGeometry x="131" y="-273.5" width="36" height="21" as="geometry"/>
                </mxCell>
                <mxCell id="235" value="name" style="text;html=1;align=center;verticalAlign=middle;resizable=0;points=[];autosize=1;strokeColor=none;fillColor=none;fontSize=14;" parent="1" vertex="1">
                    <mxGeometry x="2" y="-244.5" width="45" height="21" as="geometry"/>
                </mxCell>
                <mxCell id="236" value="description" style="text;html=1;align=center;verticalAlign=middle;resizable=0;points=[];autosize=1;strokeColor=none;fillColor=none;fontSize=14;" parent="1" vertex="1">
                    <mxGeometry x="2" y="-216.5" width="78" height="21" as="geometry"/>
                </mxCell>
                <mxCell id="239" value="string" style="text;html=1;align=center;verticalAlign=middle;resizable=0;points=[];autosize=1;strokeColor=none;fillColor=none;fontSize=14;" parent="1" vertex="1">
                    <mxGeometry x="131" y="-244.5" width="44" height="21" as="geometry"/>
                </mxCell>
                <mxCell id="240" value="string" style="text;html=1;align=center;verticalAlign=middle;resizable=0;points=[];autosize=1;strokeColor=none;fillColor=none;fontSize=14;" parent="1" vertex="1">
                    <mxGeometry x="131" y="-216.5" width="44" height="21" as="geometry"/>
                </mxCell>
                <mxCell id="243" value="" style="rounded=1;whiteSpace=wrap;html=1;strokeColor=#8BE9FD;fillColor=#2E303D;strokeWidth=3;fontColor=#F8F8F2;" parent="1" vertex="1">
                    <mxGeometry x="-14.5" y="-75" width="208" height="210" as="geometry"/>
                </mxCell>
                <mxCell id="244" value="Products" style="text;html=1;align=center;verticalAlign=middle;resizable=0;points=[];autosize=1;strokeColor=none;fillColor=none;labelBackgroundColor=none;fontStyle=1;fontSize=16;" parent="1" vertex="1">
                    <mxGeometry x="50" y="-66" width="79" height="23" as="geometry"/>
                </mxCell>
                <mxCell id="245" value="id" style="text;html=1;align=center;verticalAlign=middle;resizable=0;points=[];autosize=1;strokeColor=none;fillColor=none;fontSize=14;" parent="1" vertex="1">
                    <mxGeometry x="-3.5" y="-37" width="21" height="21" as="geometry"/>
                </mxCell>
                <mxCell id="246" value="uuid" style="text;html=1;align=center;verticalAlign=middle;resizable=0;points=[];autosize=1;strokeColor=none;fillColor=none;fontSize=14;" parent="1" vertex="1">
                    <mxGeometry x="125.5" y="-37" width="36" height="21" as="geometry"/>
                </mxCell>
                <mxCell id="247" value="categoryId" style="text;html=1;align=center;verticalAlign=middle;resizable=0;points=[];autosize=1;strokeColor=none;fillColor=none;fontSize=14;" parent="1" vertex="1">
                    <mxGeometry x="-3.5" y="-9" width="75" height="21" as="geometry"/>
                </mxCell>
                <mxCell id="248" value="description" style="text;html=1;align=center;verticalAlign=middle;resizable=0;points=[];autosize=1;strokeColor=none;fillColor=none;fontSize=14;" parent="1" vertex="1">
                    <mxGeometry x="-3.5" y="20" width="78" height="21" as="geometry"/>
                </mxCell>
                <mxCell id="249" value="price" style="text;html=1;align=center;verticalAlign=middle;resizable=0;points=[];autosize=1;strokeColor=none;fillColor=none;fontSize=14;" parent="1" vertex="1">
                    <mxGeometry x="-3.5" y="48" width="40" height="21" as="geometry"/>
                </mxCell>
                <mxCell id="250" value="available" style="text;html=1;align=center;verticalAlign=middle;resizable=0;points=[];autosize=1;strokeColor=none;fillColor=none;fontSize=14;" parent="1" vertex="1">
                    <mxGeometry x="-3.5" y="74" width="65" height="21" as="geometry"/>
                </mxCell>
                <mxCell id="251" value="uuid" style="text;html=1;align=center;verticalAlign=middle;resizable=0;points=[];autosize=1;strokeColor=none;fillColor=none;fontSize=14;" parent="1" vertex="1">
                    <mxGeometry x="125" y="-8" width="36" height="21" as="geometry"/>
                </mxCell>
                <mxCell id="252" value="string" style="text;html=1;align=center;verticalAlign=middle;resizable=0;points=[];autosize=1;strokeColor=none;fillColor=none;fontSize=14;" parent="1" vertex="1">
                    <mxGeometry x="125.5" y="20" width="44" height="21" as="geometry"/>
                </mxCell>
                <mxCell id="253" value="number" style="text;html=1;align=center;verticalAlign=middle;resizable=0;points=[];autosize=1;strokeColor=none;fillColor=none;fontSize=14;" parent="1" vertex="1">
                    <mxGeometry x="123.5" y="48" width="57" height="21" as="geometry"/>
                </mxCell>
                <mxCell id="254" value="boolean" style="text;html=1;align=center;verticalAlign=middle;resizable=0;points=[];autosize=1;strokeColor=none;fillColor=none;fontSize=14;" parent="1" vertex="1">
                    <mxGeometry x="123.5" y="76" width="60" height="21" as="geometry"/>
                </mxCell>
                <mxCell id="257" value="" style="rounded=1;whiteSpace=wrap;html=1;strokeColor=#8BE9FD;fillColor=#2E303D;strokeWidth=3;fontColor=#F8F8F2;" parent="1" vertex="1">
                    <mxGeometry x="-326.5" y="-55" width="208" height="190" as="geometry"/>
                </mxCell>
                <mxCell id="258" value="Requests" style="text;html=1;align=center;verticalAlign=middle;resizable=0;points=[];autosize=1;strokeColor=none;fillColor=none;labelBackgroundColor=none;fontStyle=1;fontSize=16;" parent="1" vertex="1">
                    <mxGeometry x="-263.5" y="-48" width="82" height="23" as="geometry"/>
                </mxCell>
                <mxCell id="259" value="id" style="text;html=1;align=center;verticalAlign=middle;resizable=0;points=[];autosize=1;strokeColor=none;fillColor=none;fontSize=14;" parent="1" vertex="1">
                    <mxGeometry x="-315.5" y="-17" width="21" height="21" as="geometry"/>
                </mxCell>
                <mxCell id="260" value="uuid" style="text;html=1;align=center;verticalAlign=middle;resizable=0;points=[];autosize=1;strokeColor=none;fillColor=none;fontSize=14;" parent="1" vertex="1">
                    <mxGeometry x="-186.5" y="-17" width="36" height="21" as="geometry"/>
                </mxCell>
                <mxCell id="261" value="accountId" style="text;html=1;align=center;verticalAlign=middle;resizable=0;points=[];autosize=1;strokeColor=none;fillColor=none;fontSize=14;" parent="1" vertex="1">
                    <mxGeometry x="-317" y="12" width="71" height="21" as="geometry"/>
                </mxCell>
                <mxCell id="262" value="description" style="text;html=1;align=center;verticalAlign=middle;resizable=0;points=[];autosize=1;strokeColor=none;fillColor=none;fontSize=14;" parent="1" vertex="1">
                    <mxGeometry x="-315.5" y="40" width="78" height="21" as="geometry"/>
                </mxCell>
                <mxCell id="263" value="total" style="text;html=1;align=center;verticalAlign=middle;resizable=0;points=[];autosize=1;strokeColor=none;fillColor=none;fontSize=14;" parent="1" vertex="1">
                    <mxGeometry x="-315.5" y="68" width="36" height="21" as="geometry"/>
                </mxCell>
                <mxCell id="265" value="uuid" style="text;html=1;align=center;verticalAlign=middle;resizable=0;points=[];autosize=1;strokeColor=none;fillColor=none;fontSize=14;" parent="1" vertex="1">
                    <mxGeometry x="-187" y="12" width="36" height="21" as="geometry"/>
                </mxCell>
                <mxCell id="266" value="string" style="text;html=1;align=center;verticalAlign=middle;resizable=0;points=[];autosize=1;strokeColor=none;fillColor=none;fontSize=14;" parent="1" vertex="1">
                    <mxGeometry x="-187" y="40" width="44" height="21" as="geometry"/>
                </mxCell>
                <mxCell id="267" value="number" style="text;html=1;align=center;verticalAlign=middle;resizable=0;points=[];autosize=1;strokeColor=none;fillColor=none;fontSize=14;" parent="1" vertex="1">
                    <mxGeometry x="-186.5" y="68" width="57" height="21" as="geometry"/>
                </mxCell>
                <mxCell id="269" value="" style="rounded=1;whiteSpace=wrap;html=1;strokeColor=#8BE9FD;fillColor=#2E303D;strokeWidth=3;fontColor=#F8F8F2;" parent="1" vertex="1">
                    <mxGeometry x="-181.5" y="226" width="203" height="132" as="geometry"/>
                </mxCell>
                <mxCell id="270" value="RequestsProducts" style="text;html=1;align=center;verticalAlign=middle;resizable=0;points=[];autosize=1;strokeColor=none;fillColor=none;labelBackgroundColor=none;fontStyle=1;fontSize=16;" parent="1" vertex="1">
                    <mxGeometry x="-153" y="233" width="151" height="23" as="geometry"/>
                </mxCell>
                <mxCell id="271" value="id" style="text;html=1;align=center;verticalAlign=middle;resizable=0;points=[];autosize=1;strokeColor=none;fillColor=none;fontSize=14;" parent="1" vertex="1">
                    <mxGeometry x="-170.5" y="264" width="21" height="21" as="geometry"/>
                </mxCell>
                <mxCell id="272" value="uuid" style="text;html=1;align=center;verticalAlign=middle;resizable=0;points=[];autosize=1;strokeColor=none;fillColor=none;fontSize=14;" parent="1" vertex="1">
                    <mxGeometry x="-36.5" y="264" width="36" height="21" as="geometry"/>
                </mxCell>
                <mxCell id="273" value="requestId" style="text;html=1;align=center;verticalAlign=middle;resizable=0;points=[];autosize=1;strokeColor=none;fillColor=none;fontSize=14;" parent="1" vertex="1">
                    <mxGeometry x="-170.5" y="293" width="68" height="21" as="geometry"/>
                </mxCell>
                <mxCell id="274" value="productId" style="text;html=1;align=center;verticalAlign=middle;resizable=0;points=[];autosize=1;strokeColor=none;fillColor=none;fontSize=14;" parent="1" vertex="1">
                    <mxGeometry x="-170.5" y="321" width="68" height="21" as="geometry"/>
                </mxCell>
                <mxCell id="276" value="uuid" style="text;html=1;align=center;verticalAlign=middle;resizable=0;points=[];autosize=1;strokeColor=none;fillColor=none;fontSize=14;" parent="1" vertex="1">
                    <mxGeometry x="-36.5" y="293" width="36" height="21" as="geometry"/>
                </mxCell>
                <mxCell id="277" value="uuid" style="text;html=1;align=center;verticalAlign=middle;resizable=0;points=[];autosize=1;strokeColor=none;fillColor=none;fontSize=14;" parent="1" vertex="1">
                    <mxGeometry x="-36.5" y="321" width="36" height="21" as="geometry"/>
                </mxCell>
                <mxCell id="283" value="" style="endArrow=none;html=1;rounded=0;fontSize=14;strokeColor=#C0C0C0;strokeWidth=3;" parent="1" edge="1">
                    <mxGeometry width="50" height="50" relative="1" as="geometry">
                        <mxPoint x="-482" y="-204" as="sourcePoint"/>
                        <mxPoint x="-329" y="-305" as="targetPoint"/>
                        <Array as="points">
                            <mxPoint x="-482" y="-305"/>
                        </Array>
                    </mxGeometry>
                </mxCell>
                <mxCell id="285" value="" style="endArrow=none;html=1;rounded=0;fontSize=14;strokeColor=#C0C0C0;strokeWidth=3;" parent="1" edge="1">
                    <mxGeometry width="50" height="50" relative="1" as="geometry">
                        <mxPoint x="-331" y="61" as="sourcePoint"/>
                        <mxPoint x="-481.5" y="-4" as="targetPoint"/>
                        <Array as="points">
                            <mxPoint x="-482" y="61"/>
                        </Array>
                    </mxGeometry>
                </mxCell>
                <mxCell id="287" value="" style="endArrow=none;html=1;rounded=0;fontSize=14;strokeColor=#C0C0C0;strokeWidth=3;" parent="1" edge="1">
                    <mxGeometry width="50" height="50" relative="1" as="geometry">
                        <mxPoint x="89" y="-81" as="sourcePoint"/>
                        <mxPoint x="89" y="-175" as="targetPoint"/>
                    </mxGeometry>
                </mxCell>
                <mxCell id="288" value="" style="endArrow=none;html=1;rounded=0;fontSize=14;strokeColor=#C0C0C0;strokeWidth=3;" parent="1" edge="1">
                    <mxGeometry width="50" height="50" relative="1" as="geometry">
                        <mxPoint x="-224" y="187" as="sourcePoint"/>
                        <mxPoint x="-79" y="187" as="targetPoint"/>
                    </mxGeometry>
                </mxCell>
                <mxCell id="290" value="" style="endArrow=none;html=1;rounded=0;fontSize=14;strokeColor=#C0C0C0;strokeWidth=3;" parent="1" edge="1">
                    <mxGeometry width="50" height="50" relative="1" as="geometry">
                        <mxPoint x="-223" y="187" as="sourcePoint"/>
                        <mxPoint x="-223" y="138" as="targetPoint"/>
                    </mxGeometry>
                </mxCell>
                <mxCell id="291" value="" style="endArrow=none;html=1;rounded=0;fontSize=14;strokeColor=#C0C0C0;strokeWidth=3;" parent="1" edge="1">
                    <mxGeometry width="50" height="50" relative="1" as="geometry">
                        <mxPoint x="-80" y="226" as="sourcePoint"/>
                        <mxPoint x="-80.5" y="188" as="targetPoint"/>
                    </mxGeometry>
                </mxCell>
                <mxCell id="293" value="" style="endArrow=none;html=1;rounded=0;fontSize=14;strokeColor=#C0C0C0;strokeWidth=3;" parent="1" edge="1">
                    <mxGeometry width="50" height="50" relative="1" as="geometry">
                        <mxPoint x="89" y="188" as="sourcePoint"/>
                        <mxPoint x="89" y="138" as="targetPoint"/>
                    </mxGeometry>
                </mxCell>
                <mxCell id="294" value="" style="endArrow=none;html=1;rounded=0;fontSize=14;strokeColor=#C0C0C0;strokeWidth=3;" parent="1" edge="1">
                    <mxGeometry width="50" height="50" relative="1" as="geometry">
                        <mxPoint x="-80" y="187" as="sourcePoint"/>
                        <mxPoint x="89" y="187" as="targetPoint"/>
                        <Array as="points">
                            <mxPoint x="-14.5" y="187"/>
                        </Array>
                    </mxGeometry>
                </mxCell>
                <mxCell id="297" value="createdAt" style="text;html=1;align=center;verticalAlign=middle;resizable=0;points=[];autosize=1;strokeColor=none;fillColor=none;fontSize=14;" parent="1" vertex="1">
                    <mxGeometry x="-315.5" y="96" width="70" height="21" as="geometry"/>
                </mxCell>
                <mxCell id="298" value="date" style="text;html=1;align=center;verticalAlign=middle;resizable=0;points=[];autosize=1;strokeColor=none;fillColor=none;fontSize=14;" parent="1" vertex="1">
                    <mxGeometry x="-186.5" y="96" width="37" height="21" as="geometry"/>
                </mxCell>
                <mxCell id="300" value="picture" style="text;html=1;align=center;verticalAlign=middle;resizable=0;points=[];autosize=1;strokeColor=none;fillColor=none;fontSize=14;" vertex="1" parent="1">
                    <mxGeometry x="-3.5" y="100" width="52" height="21" as="geometry"/>
                </mxCell>
                <mxCell id="302" value="string" style="text;html=1;align=center;verticalAlign=middle;resizable=0;points=[];autosize=1;strokeColor=none;fillColor=none;fontSize=14;" vertex="1" parent="1">
                    <mxGeometry x="125" y="100" width="44" height="21" as="geometry"/>
                </mxCell>
            </root>
        </mxGraphModel>
    </diagram>
</mxfile>
